<mxfile host="app.diagrams.net" modified="2023-09-08T07:55:51.193Z" agent="Mozilla/5.0 (Windows NT 10.0; Win64; x64) AppleWebKit/537.36 (KHTML, like Gecko) Chrome/116.0.0.0 Safari/537.36" etag="eeWMLSs9ZvIa4isstISp" version="21.7.2" type="device">
  <diagram name="第 1 页" id="m9IxADDdJCiYFtoJLUi_">
    <mxGraphModel dx="1621" dy="390" grid="1" gridSize="10" guides="0" tooltips="1" connect="1" arrows="1" fold="1" page="1" pageScale="1" pageWidth="827" pageHeight="1169" background="#bbbbbe" math="0" shadow="0">
      <root>
        <mxCell id="0" />
        <mxCell id="1" parent="0" />
        <mxCell id="vx9AdzrIzodOhRyNV3gM-5" value="" style="rounded=1;whiteSpace=wrap;html=1;fillColor=#000000;" vertex="1" parent="1">
          <mxGeometry x="-740" y="450" width="120" height="170" as="geometry" />
        </mxCell>
      </root>
    </mxGraphModel>
  </diagram>
</mxfile>
